<?xml version="1.0" encoding="utf-8"?>
<!-- Generator: Adobe Illustrator 21.0.2, SVG Export Plug-In . SVG Version: 6.00 Build 0)  -->
<svg version="1.1" id="Sonstioges" xmlns="http://www.w3.org/2000/svg" xmlns:xlink="http://www.w3.org/1999/xlink" x="0px" y="0px"
	 viewBox="0 0 128 128" style="enable-background:new 0 0 128 128;" xml:space="preserve">
<style type="text/css">
	.st0{fill:#C3C4C5;}
</style>
<title>separator</title>
<path class="st0" d="M34.9,72.7c0,4.8-3.9,8.7-8.7,8.7H8.7c-4.8,0-8.7-3.9-8.7-8.7V55.3c0-4.8,3.9-8.7,8.7-8.7l0,0h17.5
	c4.8,0,8.7,3.9,8.7,8.7l0,0V72.7z M81.5,72.7c0,4.8-3.9,8.7-8.7,8.7l0,0H55.3c-4.8,0-8.7-3.9-8.7-8.7V55.3c0-4.8,3.9-8.7,8.7-8.7
	l0,0h17.5c4.8,0,8.7,3.9,8.7,8.7v0L81.5,72.7z M128,72.7c0,4.8-3.9,8.7-8.7,8.7h-17.5c-4.8,0-8.7-3.9-8.7-8.7l0,0V55.3
	c0-4.8,3.9-8.7,8.7-8.7h17.4c4.8,0,8.7,3.9,8.7,8.7c0,0,0,0,0,0L128,72.7z"/>
</svg>
