<?xml version="1.0" encoding="utf-8"?>
<!-- Generator: Adobe Illustrator 21.0.2, SVG Export Plug-In . SVG Version: 6.00 Build 0)  -->
<svg version="1.1" id="Layer_1" xmlns="http://www.w3.org/2000/svg" xmlns:xlink="http://www.w3.org/1999/xlink" x="0px" y="0px"
	 viewBox="0 0 128 128" style="enable-background:new 0 0 128 128;" xml:space="preserve">
<style type="text/css">
	.st0{fill:#C3C4C5;}
</style>
<title>close__ADDON</title>
<g id="close">
	<path class="st0" d="M125,110.3L110.3,125c-4.1,4-10.6,4-14.7,0L64,93.3L32.3,125c-4.1,4-10.6,4-14.6,0L3,110.3
		c-4-4.1-4-10.6,0-14.7L34.7,64L3,32.3c-4-4.1-4-10.6,0-14.6L17.7,3c4.1-4,10.6-4,14.6,0L64,34.7L95.7,3c4.1-4,10.6-4,14.7,0
		L125,17.7c4,4.1,4,10.6,0,14.6L93.3,64L125,95.7C129,99.7,129,106.3,125,110.3z"/>
</g>
</svg>
