<?xml version="1.0" encoding="utf-8"?>
<!-- Generator: Adobe Illustrator 21.0.2, SVG Export Plug-In . SVG Version: 6.00 Build 0)  -->
<svg version="1.1" id="Layer_1" xmlns="http://www.w3.org/2000/svg" xmlns:xlink="http://www.w3.org/1999/xlink" x="0px" y="0px"
	 viewBox="0 0 128 128" style="enable-background:new 0 0 128 128;" xml:space="preserve">
<style type="text/css">
	.st0{fill:#C3C4C5;}
</style>
<title>move__ADDON</title>
<g id="move_ADDON_.svg">
	<path class="st0" d="M77.3,64l29.6,29.6l12-12c1.5-1.6,3.8-2,5.8-1.2c2,0.8,3.2,2.8,3.3,4.9v37.3c0,2.9-2.4,5.3-5.3,5.3H85.3
		c-2.2,0-4.1-1.3-4.9-3.3c-0.8-2-0.4-4.3,1.2-5.8l12-12L64,77.3l-29.6,29.6l12,12c1.6,1.5,2,3.8,1.2,5.8c-0.8,2-2.8,3.3-4.9,3.3H5.3
		c-2.9,0-5.3-2.4-5.3-5.3V85.3c0-2.2,1.3-4.1,3.3-4.9c2-0.8,4.3-0.4,5.8,1.2l12,12L50.7,64L21.1,34.4l-12,12c-1,1-2.3,1.6-3.8,1.6
		c-0.7,0-1.4-0.2-2-0.4c-2-0.8-3.3-2.8-3.3-4.9V5.3C0,2.4,2.4,0,5.3,0h37.3c2.2,0,4.1,1.3,4.9,3.3c0.8,2,0.4,4.3-1.2,5.8l-12,12
		L64,50.7l29.6-29.6l-12-12c-1.6-1.5-2-3.8-1.2-5.8c0.8-2,2.8-3.3,4.9-3.3h37.3c2.9,0,5.3,2.4,5.3,5.3v37.3c0,2.1-1.3,4.1-3.3,4.9
		c-0.7,0.3-1.4,0.4-2.1,0.4c-1.4,0-2.8-0.6-3.8-1.6l-12-12L77.3,64z"/>
</g>
</svg>
