<svg id="Layer_1" data-name="Layer 1" xmlns="http://www.w3.org/2000/svg" viewBox="0 0 220 256"><defs><style>.cls-1{opacity:0.1;}.cls-2{fill:#d8d8d8;}</style></defs><title>SNuDuD</title><g class="cls-1"><path class="cls-2" d="M197.5,190.14h-175A17.53,17.53,0,0,1,7.33,163.88L94.84,12.17a17.51,17.51,0,0,1,30.32,0l87.5,151.71a17.52,17.52,0,0,1-15.16,26.26ZM93.22,154.07A16.78,16.78,0,1,0,110,137.29h0A16.78,16.78,0,0,0,93.22,154.07Zm3.56-38a4.36,4.36,0,0,0,4.37,4.13h17.7a4.38,4.38,0,0,0,4.37-4.13l2.71-75.38a4.38,4.38,0,0,0-4.14-4.61H98.44a4.37,4.37,0,0,0-4.37,4.38v.24Z"/></g></svg>